<svg width="16" height="17" viewBox="0 0 16 17" fill="none" xmlns="http://www.w3.org/2000/svg">
<g clip-path="url(#clip0_885_2119)">
<path d="M8.00586 12.3599L3.56543 10.1919L8.00183 16.1619L8.66833 15.2649V12.0354L8.00586 12.3599Z" fill="#15BFFD"/>
<path d="M8.00171 0.162109L2.90625 9.30505H13.0973L8.00171 0.162109Z" fill="#15BFFD"/>
<path d="M13.0975 9.3186L8.00195 0.162109V9.3186H13.0975Z" fill="#1286B0"/>
<path d="M6.45996 5.24023H7.45996V6.24023H6.45996V5.24023Z" fill="#F7F8FA"/>
<path d="M8.00122 6.82202L7.9812 6.8125L2.90625 9.3125H2.91077L7.98572 11.8125L8.00574 11.803L8.66772 11.479V7.14844L8.00122 6.82202Z" fill="#147EA5"/>
<path d="M6.45996 3.34863H7.45996V4.34863H6.45996V3.34863Z" fill="#F7F8FA"/>
<path d="M8.00598 12.36L8.00195 16.162L12.4415 10.188L8.00598 12.36Z" fill="#1286B0"/>
<path d="M13.0885 9.3125L8.00244 6.82202L7.98242 6.8125L7.98694 11.8125L8.00696 11.803L13.093 9.3125H13.0885Z" fill="#0E526A"/>
</g>
<defs>
<clipPath id="clip0_885_2119">
<rect width="16" height="16" fill="white" transform="translate(0 0.162109)"/>
</clipPath>
</defs>
</svg>
