<svg width="282" height="49" viewBox="0 0 282 49" fill="none" xmlns="http://www.w3.org/2000/svg">
<mask id="path-1-outside-1_820_2020" maskUnits="userSpaceOnUse" x="-1.41332" y="4.99753" width="39.5731" height="39.5731" fill="black">
<rect fill="white" x="-1.41332" y="4.99753" width="39.5731" height="39.5731"/>
<path d="M27.0106 15.5112C27.1339 15.3788 27.1268 15.1712 26.9913 15.0512C25.1515 13.4221 22.8857 12.3463 20.4556 11.9519C17.9177 11.5401 15.3146 11.89 12.9755 12.9576C10.6365 14.0252 8.66653 15.7624 7.31478 17.9495C5.96303 20.1367 5.29021 22.6755 5.38139 25.2451C5.47257 27.8146 6.32366 30.2994 7.82703 32.3853C9.3304 34.4711 11.4185 36.0643 13.8274 36.9634C16.2362 37.8624 18.8576 38.027 21.3599 37.4363C23.7559 36.8707 25.9398 35.637 27.6595 33.8816C27.7861 33.7523 27.7785 33.5447 27.6461 33.4214C27.5137 33.2981 27.3067 33.3058 27.1799 33.4349C25.5487 35.0955 23.4793 36.2628 21.2094 36.7987C18.8332 37.3596 16.3439 37.2033 14.0565 36.3495C11.769 35.4958 9.78615 33.9829 8.35854 32.0022C6.93094 30.0214 6.12274 27.6619 6.03616 25.2218C5.94958 22.7818 6.58849 20.3709 7.87211 18.294C9.15573 16.217 11.0264 14.5674 13.2476 13.5536C15.4687 12.5399 17.9406 12.2076 20.3507 12.5987C22.6528 12.9723 24.7998 13.9899 26.5446 15.5308C26.6802 15.6506 26.8872 15.6436 27.0106 15.5112Z"/>
</mask>
<path d="M27.0106 15.5112C27.1339 15.3788 27.1268 15.1712 26.9913 15.0512C25.1515 13.4221 22.8857 12.3463 20.4556 11.9519C17.9177 11.5401 15.3146 11.89 12.9755 12.9576C10.6365 14.0252 8.66653 15.7624 7.31478 17.9495C5.96303 20.1367 5.29021 22.6755 5.38139 25.2451C5.47257 27.8146 6.32366 30.2994 7.82703 32.3853C9.3304 34.4711 11.4185 36.0643 13.8274 36.9634C16.2362 37.8624 18.8576 38.027 21.3599 37.4363C23.7559 36.8707 25.9398 35.637 27.6595 33.8816C27.7861 33.7523 27.7785 33.5447 27.6461 33.4214C27.5137 33.2981 27.3067 33.3058 27.1799 33.4349C25.5487 35.0955 23.4793 36.2628 21.2094 36.7987C18.8332 37.3596 16.3439 37.2033 14.0565 36.3495C11.769 35.4958 9.78615 33.9829 8.35854 32.0022C6.93094 30.0214 6.12274 27.6619 6.03616 25.2218C5.94958 22.7818 6.58849 20.3709 7.87211 18.294C9.15573 16.217 11.0264 14.5674 13.2476 13.5536C15.4687 12.5399 17.9406 12.2076 20.3507 12.5987C22.6528 12.9723 24.7998 13.9899 26.5446 15.5308C26.6802 15.6506 26.8872 15.6436 27.0106 15.5112Z" fill="#15BFFD"/>
<path d="M27.0106 15.5112C27.1339 15.3788 27.1268 15.1712 26.9913 15.0512C25.1515 13.4221 22.8857 12.3463 20.4556 11.9519C17.9177 11.5401 15.3146 11.89 12.9755 12.9576C10.6365 14.0252 8.66653 15.7624 7.31478 17.9495C5.96303 20.1367 5.29021 22.6755 5.38139 25.2451C5.47257 27.8146 6.32366 30.2994 7.82703 32.3853C9.3304 34.4711 11.4185 36.0643 13.8274 36.9634C16.2362 37.8624 18.8576 38.027 21.3599 37.4363C23.7559 36.8707 25.9398 35.637 27.6595 33.8816C27.7861 33.7523 27.7785 33.5447 27.6461 33.4214C27.5137 33.2981 27.3067 33.3058 27.1799 33.4349C25.5487 35.0955 23.4793 36.2628 21.2094 36.7987C18.8332 37.3596 16.3439 37.2033 14.0565 36.3495C11.769 35.4958 9.78615 33.9829 8.35854 32.0022C6.93094 30.0214 6.12274 27.6619 6.03616 25.2218C5.94958 22.7818 6.58849 20.3709 7.87211 18.294C9.15573 16.217 11.0264 14.5674 13.2476 13.5536C15.4687 12.5399 17.9406 12.2076 20.3507 12.5987C22.6528 12.9723 24.7998 13.9899 26.5446 15.5308C26.6802 15.6506 26.8872 15.6436 27.0106 15.5112Z" stroke="#15BFFD" stroke-width="2" mask="url(#path-1-outside-1_820_2020)"/>
<mask id="path-2-outside-2_820_2020" maskUnits="userSpaceOnUse" x="5.60181" y="11.3341" width="26.8532" height="26.8532" fill="black">
<rect fill="white" x="5.60181" y="11.3341" width="26.8532" height="26.8532"/>
<path d="M12.7566 30.2451C12.6764 30.3231 12.6744 30.4515 12.7544 30.5297C13.8405 31.5918 15.2066 32.3254 16.6949 32.6432C18.2493 32.9751 19.8672 32.8387 21.3441 32.2511C22.821 31.6635 24.0904 30.6512 24.9919 29.3421C25.8934 28.0331 26.3865 26.4861 26.4088 24.8968C26.4311 23.3075 25.9817 21.7472 25.1173 20.4134C24.2528 19.0796 23.0123 18.032 21.5525 17.4032C20.0927 16.7744 18.4793 16.5926 16.9162 16.8807C15.4195 17.1567 14.0334 17.8516 12.9179 18.8828C12.8358 18.9587 12.8341 19.0872 12.9121 19.1674C12.9901 19.2476 13.1181 19.2491 13.2003 19.1733C14.2583 18.1979 15.5717 17.5405 16.9896 17.2791C18.4739 17.0054 20.0061 17.178 21.3923 17.7752C22.7785 18.3723 23.9565 19.367 24.7774 20.6337C25.5982 21.9003 26.025 23.3819 26.0039 24.8911C25.9827 26.4003 25.5144 27.8693 24.6584 29.1124C23.8023 30.3555 22.5968 31.3168 21.1944 31.8748C19.792 32.4327 18.2556 32.5623 16.7795 32.2471C15.3695 31.946 14.0751 31.252 13.0449 30.2472C12.9648 30.1691 12.8368 30.1671 12.7566 30.2451Z"/>
</mask>
<path d="M12.7566 30.2451C12.6764 30.3231 12.6744 30.4515 12.7544 30.5297C13.8405 31.5918 15.2066 32.3254 16.6949 32.6432C18.2493 32.9751 19.8672 32.8387 21.3441 32.2511C22.821 31.6635 24.0904 30.6512 24.9919 29.3421C25.8934 28.0331 26.3865 26.4861 26.4088 24.8968C26.4311 23.3075 25.9817 21.7472 25.1173 20.4134C24.2528 19.0796 23.0123 18.032 21.5525 17.4032C20.0927 16.7744 18.4793 16.5926 16.9162 16.8807C15.4195 17.1567 14.0334 17.8516 12.9179 18.8828C12.8358 18.9587 12.8341 19.0872 12.9121 19.1674C12.9901 19.2476 13.1181 19.2491 13.2003 19.1733C14.2583 18.1979 15.5717 17.5405 16.9896 17.2791C18.4739 17.0054 20.0061 17.178 21.3923 17.7752C22.7785 18.3723 23.9565 19.367 24.7774 20.6337C25.5982 21.9003 26.025 23.3819 26.0039 24.8911C25.9827 26.4003 25.5144 27.8693 24.6584 29.1124C23.8023 30.3555 22.5968 31.3168 21.1944 31.8748C19.792 32.4327 18.2556 32.5623 16.7795 32.2471C15.3695 31.946 14.0751 31.252 13.0449 30.2472C12.9648 30.1691 12.8368 30.1671 12.7566 30.2451Z" fill="#15BFFD"/>
<path d="M12.7566 30.2451C12.6764 30.3231 12.6744 30.4515 12.7544 30.5297C13.8405 31.5918 15.2066 32.3254 16.6949 32.6432C18.2493 32.9751 19.8672 32.8387 21.3441 32.2511C22.821 31.6635 24.0904 30.6512 24.9919 29.3421C25.8934 28.0331 26.3865 26.4861 26.4088 24.8968C26.4311 23.3075 25.9817 21.7472 25.1173 20.4134C24.2528 19.0796 23.0123 18.032 21.5525 17.4032C20.0927 16.7744 18.4793 16.5926 16.9162 16.8807C15.4195 17.1567 14.0334 17.8516 12.9179 18.8828C12.8358 18.9587 12.8341 19.0872 12.9121 19.1674C12.9901 19.2476 13.1181 19.2491 13.2003 19.1733C14.2583 18.1979 15.5717 17.5405 16.9896 17.2791C18.4739 17.0054 20.0061 17.178 21.3923 17.7752C22.7785 18.3723 23.9565 19.367 24.7774 20.6337C25.5982 21.9003 26.025 23.3819 26.0039 24.8911C25.9827 26.4003 25.5144 27.8693 24.6584 29.1124C23.8023 30.3555 22.5968 31.3168 21.1944 31.8748C19.792 32.4327 18.2556 32.5623 16.7795 32.2471C15.3695 31.946 14.0751 31.252 13.0449 30.2472C12.9648 30.1691 12.8368 30.1671 12.7566 30.2451Z" stroke="#15BFFD" stroke-width="2" mask="url(#path-2-outside-2_820_2020)"/>
<mask id="path-3-outside-3_820_2020" maskUnits="userSpaceOnUse" x="11.4734" y="17.7118" width="14.1332" height="14.1332" fill="black">
<rect fill="white" x="11.4734" y="17.7118" width="14.1332" height="14.1332"/>
<path d="M21.3497 22.447C21.3922 22.4136 21.3997 22.352 21.3653 22.3104C20.8976 21.7448 20.2787 21.3229 19.58 21.0944C18.8502 20.8558 18.066 20.8389 17.3266 21.046C16.5873 21.253 15.9259 21.6746 15.4261 22.2576C14.9264 22.8405 14.6107 23.5585 14.5191 24.3208C14.4274 25.0832 14.5639 25.8556 14.9112 26.5403C15.2585 27.2251 15.801 27.7915 16.4703 28.1679C17.1395 28.5444 17.9053 28.7139 18.6709 28.6551C19.4039 28.5987 20.1051 28.3355 20.6935 27.8969C20.7368 27.8647 20.7442 27.803 20.7108 27.7606C20.6774 27.7181 20.616 27.7108 20.5726 27.743C20.0147 28.1577 19.3503 28.4066 18.6559 28.46C17.9289 28.5158 17.2017 28.3549 16.5662 27.9974C15.9307 27.64 15.4155 27.1021 15.0857 26.4518C14.7559 25.8016 14.6263 25.0681 14.7133 24.3442C14.8004 23.6203 15.1001 22.9385 15.5747 22.3849C16.0492 21.8314 16.6773 21.431 17.3794 21.2344C18.0815 21.0378 18.8262 21.0538 19.5192 21.2804C20.1812 21.4968 20.7676 21.8961 21.2113 22.4313C21.2458 22.4729 21.3072 22.4804 21.3497 22.447Z"/>
</mask>
<path d="M21.3497 22.447C21.3922 22.4136 21.3997 22.352 21.3653 22.3104C20.8976 21.7448 20.2787 21.3229 19.58 21.0944C18.8502 20.8558 18.066 20.8389 17.3266 21.046C16.5873 21.253 15.9259 21.6746 15.4261 22.2576C14.9264 22.8405 14.6107 23.5585 14.5191 24.3208C14.4274 25.0832 14.5639 25.8556 14.9112 26.5403C15.2585 27.2251 15.801 27.7915 16.4703 28.1679C17.1395 28.5444 17.9053 28.7139 18.6709 28.6551C19.4039 28.5987 20.1051 28.3355 20.6935 27.8969C20.7368 27.8647 20.7442 27.803 20.7108 27.7606C20.6774 27.7181 20.616 27.7108 20.5726 27.743C20.0147 28.1577 19.3503 28.4066 18.6559 28.46C17.9289 28.5158 17.2017 28.3549 16.5662 27.9974C15.9307 27.64 15.4155 27.1021 15.0857 26.4518C14.7559 25.8016 14.6263 25.0681 14.7133 24.3442C14.8004 23.6203 15.1001 22.9385 15.5747 22.3849C16.0492 21.8314 16.6773 21.431 17.3794 21.2344C18.0815 21.0378 18.8262 21.0538 19.5192 21.2804C20.1812 21.4968 20.7676 21.8961 21.2113 22.4313C21.2458 22.4729 21.3072 22.4804 21.3497 22.447Z" fill="#15BFFD"/>
<path d="M21.3497 22.447C21.3922 22.4136 21.3997 22.352 21.3653 22.3104C20.8976 21.7448 20.2787 21.3229 19.58 21.0944C18.8502 20.8558 18.066 20.8389 17.3266 21.046C16.5873 21.253 15.9259 21.6746 15.4261 22.2576C14.9264 22.8405 14.6107 23.5585 14.5191 24.3208C14.4274 25.0832 14.5639 25.8556 14.9112 26.5403C15.2585 27.2251 15.801 27.7915 16.4703 28.1679C17.1395 28.5444 17.9053 28.7139 18.6709 28.6551C19.4039 28.5987 20.1051 28.3355 20.6935 27.8969C20.7368 27.8647 20.7442 27.803 20.7108 27.7606C20.6774 27.7181 20.616 27.7108 20.5726 27.743C20.0147 28.1577 19.3503 28.4066 18.6559 28.46C17.9289 28.5158 17.2017 28.3549 16.5662 27.9974C15.9307 27.64 15.4155 27.1021 15.0857 26.4518C14.7559 25.8016 14.6263 25.0681 14.7133 24.3442C14.8004 23.6203 15.1001 22.9385 15.5747 22.3849C16.0492 21.8314 16.6773 21.431 17.3794 21.2344C18.0815 21.0378 18.8262 21.0538 19.5192 21.2804C20.1812 21.4968 20.7676 21.8961 21.2113 22.4313C21.2458 22.4729 21.3072 22.4804 21.3497 22.447Z" stroke="#15BFFD" stroke-width="2" mask="url(#path-3-outside-3_820_2020)"/>
<path d="M47.8106 36.1042C44.2479 36.1042 41.5066 35.1868 39.5866 33.3522C37.6879 31.5175 36.7386 28.9468 36.7386 25.6402C36.7386 22.1628 37.6666 19.4962 39.5226 17.6402C41.3786 15.7842 44.1306 14.8562 47.7786 14.8562C48.9732 14.8562 50.0612 14.9522 51.0426 15.1442C52.0452 15.3148 53.0372 15.5708 54.0186 15.9122V20.4242C52.1626 19.6562 50.2106 19.2722 48.1626 19.2722C46.0292 19.2722 44.4612 19.7842 43.4586 20.8082C42.4772 21.8322 41.9866 23.4428 41.9866 25.6402C41.9866 27.7095 42.4986 29.2455 43.5226 30.2482C44.5679 31.2295 46.1359 31.7202 48.2266 31.7202C50.2959 31.7202 52.2372 31.3468 54.0506 30.6002V35.1442C52.1732 35.7842 50.0932 36.1042 47.8106 36.1042ZM63.1263 36.1042C57.4303 36.1042 54.5823 33.4695 54.5823 28.2002C54.5823 25.6402 55.2863 23.6882 56.6943 22.3442C58.1237 20.9788 60.2677 20.2962 63.1263 20.2962C66.0063 20.2962 68.1503 20.9682 69.5583 22.3122C70.9877 23.6562 71.7023 25.6188 71.7023 28.2002C71.7023 33.4695 68.8437 36.1042 63.1263 36.1042ZM63.1263 32.0722C64.321 32.0722 65.1743 31.7735 65.6863 31.1762C66.1983 30.5788 66.4543 29.5868 66.4543 28.2002C66.4543 26.8135 66.1877 25.8215 65.6543 25.2242C65.1423 24.6268 64.2997 24.3282 63.1263 24.3282C61.953 24.3282 61.1103 24.6375 60.5983 25.2562C60.0863 25.8535 59.8303 26.8348 59.8303 28.2002C59.8303 29.5868 60.0863 30.5788 60.5983 31.1762C61.1103 31.7735 61.953 32.0722 63.1263 32.0722ZM79.9481 36.1042C78.7534 36.1042 77.6121 36.0188 76.5241 35.8482C75.4361 35.6775 74.5614 35.4642 73.9001 35.2082V31.2722C74.6254 31.5708 75.4681 31.8162 76.4281 32.0082C77.4094 32.1788 78.3054 32.2642 79.1161 32.2642C80.1187 32.2642 80.8014 32.2215 81.1641 32.1362C81.5481 32.0295 81.7401 31.7948 81.7401 31.4322C81.7401 31.1335 81.5587 30.8882 81.1961 30.6962C80.8334 30.5042 80.1934 30.2695 79.2761 29.9922L77.9001 29.5442C76.4067 29.0322 75.3294 28.4455 74.6681 27.7842C74.0067 27.1015 73.6761 26.1522 73.6761 24.9362C73.6761 21.8428 76.0227 20.2962 80.7161 20.2962C81.6334 20.2962 82.5614 20.3708 83.5001 20.5202C84.4387 20.6482 85.2281 20.8188 85.8681 21.0322V24.9042C85.2921 24.6482 84.6201 24.4562 83.8521 24.3282C83.1054 24.1788 82.4014 24.1042 81.7401 24.1042C80.8014 24.1042 80.0974 24.1575 79.6281 24.2642C79.1587 24.3708 78.9241 24.5948 78.9241 24.9362C78.9241 25.2348 79.0734 25.4588 79.3721 25.6082C79.6707 25.7362 80.2467 25.9282 81.1001 26.1842C81.5267 26.2908 81.9641 26.4188 82.4121 26.5682C83.6067 26.9308 84.5347 27.3255 85.1961 27.7522C85.8574 28.1575 86.3267 28.6482 86.6041 29.2242C86.8814 29.8002 87.0201 30.5255 87.0201 31.4002C87.0201 32.9362 86.4121 34.1095 85.1961 34.9202C84.0014 35.7095 82.2521 36.1042 79.9481 36.1042ZM89.6286 20.6162H94.3966L94.5566 21.9602C96.0926 20.8508 97.7779 20.2962 99.6126 20.2962C100.594 20.2962 101.373 20.4455 101.949 20.7442C102.546 21.0428 103.015 21.4802 103.357 22.0562C104.125 21.5015 104.946 21.0748 105.821 20.7762C106.717 20.4562 107.73 20.2962 108.861 20.2962C110.61 20.2962 111.901 20.7548 112.733 21.6722C113.586 22.5895 114.013 23.9868 114.013 25.8642V35.7842H108.925V26.4722C108.925 25.6402 108.743 25.0428 108.381 24.6802C108.039 24.2962 107.474 24.1042 106.685 24.1042C106.173 24.1042 105.682 24.2108 105.213 24.4242C104.765 24.6162 104.381 24.8935 104.061 25.2562C104.125 25.5762 104.157 26.0562 104.157 26.6962V35.7842H99.3566V26.4082C99.3566 25.5975 99.2179 25.0108 98.9406 24.6482C98.6632 24.2855 98.1619 24.1042 97.4366 24.1042C96.5406 24.1042 95.6126 24.5628 94.6526 25.4802V35.7842H89.6286V20.6162ZM118.953 14.3442H124.553V18.2162H118.953V14.3442ZM119.369 24.4242H117.129L117.577 20.6162H124.521V35.7842H119.369V24.4242ZM135.816 36.1042C133.064 36.1042 130.931 35.4322 129.416 34.0882C127.923 32.7442 127.176 30.7815 127.176 28.2002C127.176 25.5975 127.955 23.6348 129.512 22.3122C131.069 20.9682 133.203 20.2962 135.912 20.2962C137.021 20.2962 137.981 20.3815 138.792 20.5522C139.624 20.7015 140.424 20.9575 141.192 21.3202V24.9682C139.997 24.3922 138.6 24.1042 137 24.1042C135.443 24.1042 134.291 24.4135 133.544 25.0322C132.797 25.6508 132.424 26.7068 132.424 28.2002C132.424 29.6295 132.787 30.6748 133.512 31.3362C134.237 31.9762 135.389 32.2962 136.968 32.2962C138.525 32.2962 139.944 31.9762 141.224 31.3362V35.1442C139.752 35.7842 137.949 36.1042 135.816 36.1042Z" fill="#15BFFD"/>
<path d="M150.407 36.1042C149.042 36.1042 147.762 35.9975 146.567 35.7842C145.394 35.5922 144.381 35.3042 143.527 34.9202V30.5362C144.487 30.9628 145.533 31.3042 146.663 31.5602C147.794 31.7948 148.871 31.9122 149.895 31.9122C151.282 31.9122 152.263 31.7948 152.839 31.5602C153.415 31.3042 153.703 30.7922 153.703 30.0242C153.703 29.4908 153.554 29.0748 153.255 28.7762C152.957 28.4562 152.498 28.1895 151.879 27.9762C151.282 27.7415 150.29 27.4215 148.903 27.0162C147.474 26.5895 146.343 26.1202 145.511 25.6082C144.701 25.0748 144.114 24.4455 143.751 23.7202C143.389 22.9735 143.207 22.0455 143.207 20.9362C143.207 18.9522 143.911 17.4482 145.319 16.4242C146.749 15.3788 148.829 14.8562 151.559 14.8562C152.69 14.8562 153.821 14.9415 154.951 15.1122C156.103 15.2828 157.053 15.4962 157.799 15.7522V20.1682C156.029 19.4642 154.205 19.1122 152.327 19.1122C151.026 19.1122 150.055 19.2402 149.415 19.4962C148.775 19.7308 148.455 20.2002 148.455 20.9042C148.455 21.3522 148.583 21.7148 148.839 21.9922C149.095 22.2482 149.501 22.4828 150.055 22.6962C150.631 22.8882 151.527 23.1442 152.743 23.4642C154.386 23.9122 155.655 24.4455 156.551 25.0642C157.469 25.6828 158.098 26.3975 158.439 27.2082C158.802 27.9975 158.983 28.9362 158.983 30.0242C158.983 31.9015 158.258 33.3842 156.807 34.4722C155.357 35.5602 153.223 36.1042 150.407 36.1042ZM162.609 14.3442H168.209V18.2162H162.609V14.3442ZM163.025 24.4242H160.785L161.233 20.6162H168.177V35.7842H163.025V24.4242ZM178 41.4162C176.806 41.4162 175.579 41.3415 174.32 41.1922C173.083 41.0428 172.091 40.8402 171.344 40.5842V37.0642C172.155 37.3415 173.147 37.5548 174.32 37.7042C175.515 37.8535 176.646 37.9282 177.712 37.9282C179.056 37.9282 180.038 37.8535 180.656 37.7042C181.296 37.5762 181.616 37.3415 181.616 37.0002C181.616 36.7015 181.488 36.4988 181.232 36.3922C180.976 36.2855 180.475 36.2322 179.728 36.2322H175.536C174.171 36.2322 173.104 35.9868 172.336 35.4962C171.59 35.0055 171.216 34.2908 171.216 33.3522C171.216 32.6908 171.419 32.0828 171.824 31.5282C172.23 30.9522 172.806 30.5255 173.552 30.2482C172.656 29.8002 171.984 29.2348 171.536 28.5522C171.11 27.8482 170.896 26.9842 170.896 25.9602C170.896 24.0188 171.515 22.5895 172.752 21.6722C174.011 20.7548 175.888 20.2962 178.384 20.2962C178.854 20.2962 179.398 20.3388 180.016 20.4242C180.656 20.4882 181.147 20.5522 181.488 20.6162H187.312L187.184 23.8162H184.976C185.51 24.3495 185.776 25.1388 185.776 26.1842C185.776 27.6988 185.286 28.8935 184.304 29.7682C183.344 30.6428 181.926 31.0802 180.048 31.0802C179.579 31.0802 178.96 31.0375 178.192 30.9522C176.848 31.1015 176.176 31.4642 176.176 32.0402C176.176 32.2748 176.272 32.4455 176.464 32.5522C176.656 32.6375 176.966 32.6802 177.392 32.6802H181.264C182.822 32.6802 184.027 33.0428 184.88 33.7682C185.755 34.4935 186.192 35.5282 186.192 36.8722C186.192 38.3655 185.499 39.4962 184.112 40.2642C182.747 41.0322 180.71 41.4162 178 41.4162ZM178.416 28.2322C179.526 28.2322 180.294 28.0508 180.72 27.6882C181.168 27.3042 181.392 26.6535 181.392 25.7362C181.392 24.8188 181.168 24.1682 180.72 23.7842C180.272 23.3788 179.504 23.1762 178.416 23.1762C177.371 23.1762 176.614 23.3788 176.144 23.7842C175.696 24.1682 175.472 24.8188 175.472 25.7362C175.472 26.6108 175.686 27.2508 176.112 27.6562C176.56 28.0402 177.328 28.2322 178.416 28.2322ZM188.379 20.6162H193.179L193.339 21.9282C194 21.4588 194.8 21.0748 195.739 20.7762C196.699 20.4562 197.68 20.2962 198.683 20.2962C200.624 20.2962 202.043 20.7655 202.939 21.7042C203.856 22.6428 204.315 24.0935 204.315 26.0562V35.7842H199.163V26.4722C199.163 25.6188 198.971 25.0108 198.587 24.6482C198.224 24.2855 197.584 24.1042 196.667 24.1042C196.112 24.1042 195.547 24.2322 194.971 24.4882C194.395 24.7442 193.915 25.0642 193.531 25.4482V35.7842H188.379V20.6162ZM211.677 36.1042C210.12 36.1042 208.829 35.6988 207.805 34.8882C206.802 34.0562 206.301 32.8722 206.301 31.3362C206.301 29.7575 206.834 28.5308 207.901 27.6562C208.989 26.7815 210.568 26.3442 212.637 26.3442H216.861V25.9922C216.861 25.2028 216.594 24.6482 216.061 24.3282C215.549 24.0082 214.6 23.8482 213.213 23.8482C211.485 23.8482 209.789 24.1148 208.125 24.6482V21.3202C208.893 21.0215 209.821 20.7762 210.909 20.5842C211.997 20.3922 213.117 20.2962 214.269 20.2962C216.68 20.2962 218.536 20.7868 219.837 21.7682C221.138 22.7495 221.789 24.2642 221.789 26.3122V35.7842H217.277L217.021 34.5042C215.848 35.5708 214.066 36.1042 211.677 36.1042ZM213.309 32.9362C214.845 32.9362 216.029 32.4455 216.861 31.4642V29.3202H213.213C212.445 29.3202 211.869 29.4695 211.485 29.7682C211.122 30.0668 210.941 30.5255 210.941 31.1442C210.941 32.3388 211.73 32.9362 213.309 32.9362ZM230.306 36.1042C228.471 36.1042 227.095 35.6348 226.178 34.6962C225.282 33.7575 224.834 32.4242 224.834 30.6962V24.5202H222.786V20.6162H224.834V17.4482L229.986 16.0722V20.6162H233.666L233.442 24.5202H229.986V30.3442C229.986 31.0695 230.157 31.5815 230.498 31.8802C230.839 32.1575 231.394 32.2962 232.162 32.2962C232.781 32.2962 233.41 32.1895 234.05 31.9762V35.4642C233.047 35.8908 231.799 36.1042 230.306 36.1042ZM240.758 36.1042C238.945 36.1042 237.537 35.6028 236.534 34.6002C235.553 33.5762 235.062 32.0935 235.062 30.1522V20.6162H240.214V29.8642C240.214 30.7175 240.417 31.3468 240.822 31.7522C241.228 32.1362 241.857 32.3282 242.71 32.3282C243.308 32.3282 243.884 32.2108 244.438 31.9762C244.993 31.7202 245.462 31.3895 245.846 30.9842V20.6162H250.998V35.7842H246.198L246.038 34.5042C244.609 35.5708 242.849 36.1042 240.758 36.1042ZM254.254 20.6162H259.15L259.31 22.0242C259.992 21.6188 260.824 21.2562 261.806 20.9362C262.787 20.5948 263.758 20.3815 264.718 20.2962V24.1682C263.822 24.2748 262.862 24.4668 261.838 24.7442C260.814 25.0002 260.003 25.2775 259.406 25.5762V35.7842H254.254V20.6162ZM273.85 36.1042C271.141 36.1042 268.997 35.4322 267.418 34.0882C265.861 32.7442 265.082 30.7815 265.082 28.2002C265.082 25.7255 265.754 23.7948 267.098 22.4082C268.464 21.0002 270.437 20.2962 273.018 20.2962C275.386 20.2962 277.242 20.9148 278.586 22.1522C279.93 23.3895 280.602 25.0535 280.602 27.1442V29.8642H269.85C270.085 30.8455 270.618 31.5388 271.45 31.9442C272.282 32.3495 273.477 32.5522 275.034 32.5522C275.866 32.5522 276.709 32.4775 277.562 32.3282C278.437 32.1788 279.162 31.9868 279.738 31.7522V35.1122C278.288 35.7735 276.325 36.1042 273.85 36.1042ZM276.122 26.8882V26.2162C276.122 24.5948 275.141 23.7842 273.178 23.7842C271.962 23.7842 271.098 24.0295 270.586 24.5202C270.096 25.0108 269.85 25.8002 269.85 26.8882H276.122Z" fill="white"/>
</svg>
