<svg width="52" height="52" viewBox="0 0 52 52" fill="none" xmlns="http://www.w3.org/2000/svg">
<g filter="url(#filter0_d_885_2244)">
<circle cx="26" cy="26" r="16" fill="url(#paint0_linear_885_2244)"/>
<path d="M25.042 28.3285C24.646 27.8965 24.448 27.3685 24.448 26.7445C24.448 26.2645 24.586 25.8325 24.862 25.4485C25.138 25.0645 25.438 24.7765 25.762 24.5845C26.086 24.3925 26.386 24.1645 26.662 23.9005C26.938 23.6365 27.076 23.3725 27.076 23.1085C27.076 22.8085 26.956 22.5625 26.716 22.3705C26.488 22.1785 26.14 22.0825 25.672 22.0825C24.82 22.0825 24.082 22.4545 23.458 23.1985L22 21.5605C22.996 20.3965 24.31 19.8145 25.942 19.8145C27.094 19.8145 28.006 20.0785 28.678 20.6065C29.35 21.1225 29.686 21.8065 29.686 22.6585C29.686 23.1385 29.584 23.5705 29.38 23.9545C29.176 24.3385 28.924 24.6505 28.624 24.8905C28.336 25.1305 28.042 25.3525 27.742 25.5565C27.442 25.7605 27.19 25.9825 26.986 26.2225C26.782 26.4625 26.68 26.7205 26.68 26.9965C26.68 27.3085 26.788 27.5605 27.004 27.7525L25.042 28.3285ZM26.932 31.7665C26.644 32.0545 26.302 32.1985 25.906 32.1985C25.51 32.1985 25.168 32.0545 24.88 31.7665C24.592 31.4785 24.448 31.1365 24.448 30.7405C24.448 30.3445 24.592 30.0025 24.88 29.7145C25.168 29.4265 25.51 29.2825 25.906 29.2825C26.302 29.2825 26.644 29.4265 26.932 29.7145C27.22 30.0025 27.364 30.3445 27.364 30.7405C27.364 31.1365 27.22 31.4785 26.932 31.7665Z" fill="white"/>
</g>
<defs>
<filter id="filter0_d_885_2244" x="0" y="0" width="52" height="52" filterUnits="userSpaceOnUse" color-interpolation-filters="sRGB">
<feFlood flood-opacity="0" result="BackgroundImageFix"/>
<feColorMatrix in="SourceAlpha" type="matrix" values="0 0 0 0 0 0 0 0 0 0 0 0 0 0 0 0 0 0 127 0" result="hardAlpha"/>
<feOffset/>
<feGaussianBlur stdDeviation="5"/>
<feColorMatrix type="matrix" values="0 0 0 0 0.611765 0 0 0 0 0.215686 0 0 0 0 0.992157 0 0 0 0.2 0"/>
<feBlend mode="normal" in2="BackgroundImageFix" result="effect1_dropShadow_885_2244"/>
<feBlend mode="normal" in="SourceGraphic" in2="effect1_dropShadow_885_2244" result="shape"/>
</filter>
<linearGradient id="paint0_linear_885_2244" x1="10" y1="13.1095" x2="38.5336" y2="14.35" gradientUnits="userSpaceOnUse">
<stop stop-color="#06AEEC"/>
<stop offset="1" stop-color="#9C37FD"/>
</linearGradient>
</defs>
</svg>
