<svg xmlns="http://www.w3.org/2000/svg" xmlns:xlink="http://www.w3.org/1999/xlink" viewBox="0 0 2730.6667 2730.6667">
  <defs>
    <clipPath clipPathUnits="userSpaceOnUse" id="c2">
      <path d="M 0,2048 H 2048 V 0 H 0 Z" transform="translate(-410.29051,-1616.8634)"/>
    </clipPath>
    <clipPath clipPathUnits="userSpaceOnUse" id="c4">
      <path d="M 0,2048 H 2048 V 0 H 0 Z" transform="translate(-973.62145,-2028.1653)"/>
    </clipPath>
    <clipPath clipPathUnits="userSpaceOnUse" id="c6">
      <path d="M 0,2048 H 2048 V 0 H 0 Z" transform="translate(-797.15544,-592.86854)"/>
    </clipPath>
    <clipPath clipPathUnits="userSpaceOnUse" id="c8">
      <path d="M 0,2048 H 2048 V 0 H 0 Z" transform="translate(-549.48682,-1819.5549)"/>
    </clipPath>
    <clipPath clipPathUnits="userSpaceOnUse" id="c10">
      <path d="M 0,2048 H 2048 V 0 H 0 Z" transform="translate(-1761.867,-853.5378)"/>
    </clipPath>
    <clipPath clipPathUnits="userSpaceOnUse" id="c12">
      <path d="M 0,2048 H 2048 V 0 H 0 Z" transform="translate(-542.10941,-1115.9447)"/>
    </clipPath>
    <clipPath clipPathUnits="userSpaceOnUse" id="c14">
      <path d="M 0,2048 H 2048 V 0 H 0 Z" transform="translate(-512.39221,-1541.3612)"/>
    </clipPath>
  </defs>
  <g fill="#15BFFD" fill-rule="nonzero">
    <path d="m 0,0 c 1.318,0.195 4.859,-0.527 5.359,-1.267 17.169,-25.484 34.179,-43.696 60.623,-59.28 -128.367,-27.01 -247.045,-79.371 -335.684,-179.115 -73.353,-82.233 -110.462,-190.559 -102.941,-300.494 6.752,-102.007 51.443,-200.651 118.547,-277.196 23.773,-27.114 53.625,-53.972 80.702,-77.84 2.134,6.874 4.382,13.712 6.745,20.513 113.966,331.697 378.933,600.79 691.255,753.144 17.758,-6.287 35.567,-12.43 53.423,-18.427 -45.136,-21.463 -86.978,-42.652 -129.828,-68.435 -262.113,-157.718 -491.929,-427.548 -566.791,-728.112 86.411,-57.364 165.861,-100.651 266.154,-130.499 27.706,-8.26 53.709,-16.648 82.859,-18.963 l -6.32,-18.508 c -124.516,28.828 -239.184,90.44 -344.176,161.788 -59.892,-255.491 13.14,-533.792 301.861,-604.247 143.772,-35.082 292.418,7.713 415.478,85.133 -50.956,36.632 -99.241,76.855 -144.484,120.361 26.586,8.789 43.281,17.322 66.538,32.401 53.786,-50.926 75.265,-69.561 138.336,-111.718 110.131,88.689 185.637,184.526 256.986,305.105 -113.742,-26.822 -203.871,-38.272 -320.567,-42.466 -1.04,15.298 -2.024,22.591 -5.051,37.616 94.396,2.407 190.761,18.89 282.513,40.114 23.084,4.413 51.912,13.183 74.704,19.601 93.192,174.442 142.642,340.205 165.216,536.593 6.163,-6.199 11.049,-12.674 16.483,-19.502 -22.136,-169.538 -69.799,-357.017 -153.017,-507.682 93.192,31.034 169.154,62.359 253.758,114.07 8.315,-17.522 19.164,-29.921 32.876,-43.214 -93.521,-56.597 -212.934,-99.939 -318.288,-127.453 -68.832,-122.294 -171.178,-229.162 -279.596,-316.994 90.585,-55.522 186.33,-95.198 294.73,-93.028 102.382,1.933 199.623,45.292 269.476,120.178 99.027,104.571 126.104,238.206 121.874,376.946 21.808,-2.48 32.693,-1.258 54.72,0.602 8.971,-137.92 -9.427,-259.484 -83.967,-379.061 -58.202,-93.375 -162.699,-168.152 -270.898,-189.886 -172.181,-34.553 -307.092,32.766 -444.775,122.184 -23.066,-15.462 -46.819,-29.849 -71.188,-43.123 -132.297,-70.746 -278.626,-100.996 -425.395,-55.995 -113.04,34.352 -207.739,112.319 -263.153,216.671 -74.736,141.183 -66.075,299.015 -20.112,446.981 -90.824,73.409 -168.517,160.184 -208.311,272.011 -40.231,111.277 -33.958,234.059 17.401,340.65 56.048,115.746 162.342,204.839 278.631,256.586 C -58.523,-20.453 -29.752,-10.26 0,0"
         transform="matrix(1.3333333,0,0,-1.3333333,547.054,574.8488)" clip-path="url(#c2)"/>
    <path d="m 0,0 c 257.316,15.641 425.96,-180.948 507.1,-401.875 149.68,-1.397 294.894,-34.872 411.207,-134.215 217.911,-186.104 191.892,-451.861 19.072,-655.076 -17.139,24.215 -26.803,32.475 -51.674,49.214 61.484,68.577 100.231,172.18 105.282,263.75 15.535,281.762 -216.252,428.699 -472.546,442.307 46.624,-148.266 52.295,-274.989 47.517,-428.318 80.156,-96.46 122.257,-158.418 179.493,-269.206 -16.392,-8.753 -25.691,-14.478 -40.26,-25.728 -76.709,175.7 -228.888,338.992 -378.988,455.218 -176.867,138.999 -410.817,224.701 -634.893,239.427 27.165,24.504 34.61,33.984 51.95,66.299 323.951,-45.992 598.697,-213.106 813.855,-455.465 8.078,145.629 -3.227,278.671 -44.381,418.332 -137.336,0.815 -250.604,-20.655 -379.772,-65.544 -15.116,8.332 -28.207,14.723 -43.724,22.075 145.359,45.236 258.262,75.366 412.592,76.852 -39.786,105.339 -91.569,198.822 -180.623,271.201 -83.674,67.525 -190.871,98.79 -297.72,86.832 -123.829,-13.602 -222.568,-82.199 -298.9,-177.401 -16.015,17.563 -27.569,28.213 -47.348,41.075 l 4.865,5.826 C -233.661,-74.197 -132.019,-11.617 0,0"
         transform="matrix(1.3333333,0,0,-1.3333333,1298.1619,26.4464)" clip-path="url(#c4)"/>
    <path d="m 0,0 c 75.444,11.706 145.956,-40.369 156.95,-115.912 10.995,-75.56 -41.749,-145.56 -117.403,-155.843 -74.64,-10.138 -143.51,41.755 -154.357,116.294 C -125.658,-80.921 -74.432,-11.56 0,0"
         transform="matrix(1.3333333,0,0,-1.3333333,1062.8739,1940.1753)" clip-path="url(#c6)"/>
    <path d="m 0,0 c 65.242,7.809 124.361,-39.007 131.713,-104.302 7.352,-65.295 -39.875,-124.086 -105.221,-130.982 -64.703,-6.829 -122.79,39.835 -130.069,104.488 C -110.857,-66.143 -64.602,-7.731 0,0"
         transform="matrix(1.3333333,0,0,-1.3333333,732.64907,304.59347)" clip-path="url(#c8)"/>
    <path d="m 0,0 c 58.02,9.937 113.067,-29.156 122.786,-87.212 9.719,-58.056 -29.575,-112.958 -87.65,-122.476 -57.8,-9.481 -112.374,29.575 -122.038,87.34 C -96.584,-64.584 -57.728,-9.883 0,0"
         transform="matrix(1.3333333,0,0,-1.3333333,2349.1559,1592.6163)" clip-path="url(#c10)"/>
    <path d="m 0,0 c 0.955,-0.919 2.478,-2.941 2.617,-4.168 4.757,-42.086 10.15,-84.307 18.523,-125.88 18.93,-93.977 49.368,-185.93 89.544,-272.941 16.385,-35.501 34.245,-70.546 55.21,-103.586 -18.44,-14.55 -27.03,-23.576 -42.279,-41.555 C 38.535,-412.926 -25.403,-210.569 -44.769,-52.792 -29.701,-35.993 -14.505,-17.368 0,0"
         transform="matrix(1.3333333,0,0,-1.3333333,722.81253,1242.7404)" clip-path="url(#c12)"/>
    <path d="M 0,0 C 21.045,-7.578 33.492,-8.231 56.043,-9.874 31.522,-112.455 23.707,-192.534 26.464,-297.795 17.123,-306.708 7.096,-317.553 -1.978,-326.947 l -24.439,-27.11 C -41.345,-239.996 -23.693,-111.738 0,0"
         transform="matrix(1.3333333,0,0,-1.3333333,683.1896,675.5184)" clip-path="url(#c14)"/>
  </g>
</svg>
